<svg xmlns="http://www.w3.org/2000/svg" width="346.501" height="169.999" viewBox="0 0 346.501 169.999">
  <g id="Group_207" data-name="Group 207" transform="translate(-113.499 -49.001)">
    <text id="design_illustration" data-name="design + illustration" transform="translate(182 215)" fill="#105142" font-size="16" font-family="Gibson-Book, Gibson" letter-spacing="0.46em"><tspan x="0" y="0">design + illustration</tspan></text>
    <g id="Group_98" data-name="Group 98" transform="translate(113.499 96.352)">
      <path id="Path_227" data-name="Path 227" d="M99.285,447.566c-2.766,6.277-10.265,10.957-20.69,10.957-14.2,0-22.445-7.766-22.445-19.732,0-12.02,8.244-19.732,22.338-19.732,8.936,0,15.051,3.191,18.722,7.924l-2.393,1.649c-3.458-4.574-8.883-6.967-16.328-6.967-11.86,0-19.519,6.01-19.519,17.126,0,11.062,7.712,17.125,19.679,17.125,8.19,0,15.051-2.978,17.871-9.094v-5.638h-18.3v-2.553H99.285Z" transform="translate(-56.151 -418.048)"/>
      <path id="Path_228" data-name="Path 228" d="M150.128,443.316v10.265a10.517,10.517,0,0,0,1.383,5.691h-2.925a10.076,10.076,0,0,1-1.223-5.212v-.16c-2.127,3.777-7.393,6.436-13.776,6.436-6.435,0-15.051-2.607-15.051-10.212s8.616-10.211,15.051-10.211c6.383,0,11.648,2.606,13.776,6.435v-3.032c0-7.659-4.308-11.6-12.764-11.6a21.456,21.456,0,0,0-12.18,3.617l-1.276-2.021a25.168,25.168,0,0,1,13.829-3.989C144.331,429.329,150.128,434.062,150.128,443.316Zm-2.712,5.8c-2.287-4.84-8.032-6.914-13.616-6.914-4.947,0-12.552,1.649-12.552,7.924,0,6.223,7.605,7.872,12.552,7.872,5.584,0,11.329-2.127,13.616-6.915Z" transform="translate(-67.491 -419.915)"/>
      <path id="Path_229" data-name="Path 229" d="M201.79,442.767c0,9.2-5.957,15.477-15.9,15.477-6.649,0-11.861-2.872-14.573-7.393v6.33H168.6V417.823h2.712V434.63c2.712-4.521,7.924-7.393,14.573-7.393C195.832,427.237,201.79,433.512,201.79,442.767Zm-2.766,0c0-8.137-5.053-13.084-13.722-13.084-6.115,0-11.062,2.607-13.988,7.925v10.265c2.925,5.319,7.872,7.925,13.988,7.925C193.971,455.8,199.023,450.851,199.023,442.767Z" transform="translate(-76.592 -417.823)"/>
      <path id="Path_230" data-name="Path 230" d="M252.529,442.767c0,9.2-5.957,15.477-15.9,15.477-6.649,0-11.861-2.872-14.573-7.393v6.33H219.34V417.823h2.712V434.63c2.712-4.521,7.924-7.393,14.573-7.393C246.572,427.237,252.529,433.512,252.529,442.767Zm-2.766,0c0-8.137-5.053-13.084-13.723-13.084-6.115,0-11.062,2.607-13.987,7.925v10.265c2.925,5.319,7.872,7.925,13.987,7.925C244.71,455.8,249.763,450.851,249.763,442.767Z" transform="translate(-85.815 -417.823)"/>
      <path id="Path_231" data-name="Path 231" d="M298.092,430.628,274.9,470.146h-3.031l7.712-12.764L263.84,430.628h3.085l14.148,23.934,14.041-23.934Z" transform="translate(-93.905 -420.151)"/>
    </g>
    <g id="Group_99" data-name="Group 99" transform="translate(168.76 143.809)">
      <path id="Path_232" data-name="Path 232" d="M183.1,478.423,169.27,515.654H166.4L153.42,481.827l-13.031,33.827h-2.925l-13.775-37.231h3.032l12.232,33.721,13.031-33.721h2.872l12.978,33.721,12.286-33.721Z" transform="translate(-123.689 -476.296)"/>
      <path id="Path_233" data-name="Path 233" d="M203.744,479.729a2.075,2.075,0,0,1,2.233-2.021,2.03,2.03,0,0,1,2.181,2.021,2.071,2.071,0,0,1-2.181,2.074A2.116,2.116,0,0,1,203.744,479.729Zm3.617,35.795h-2.713V486.643h2.713Z" transform="translate(-138.241 -476.166)"/>
      <path id="Path_234" data-name="Path 234" d="M219.268,517.273V488.392h2.712v6.649c2.659-4.787,7.818-7.712,14.307-7.712,9.254,0,13.51,5.8,13.51,13.828v16.116h-2.713V501.316c0-7.287-3.563-11.542-11.223-11.542-6.063,0-11.116,2.713-13.881,8.563v18.935Z" transform="translate(-141.063 -477.915)"/>
      <path id="Path_235" data-name="Path 235" d="M295.908,492.63V475.823h2.713v39.358h-2.713v-6.33c-2.766,4.521-7.978,7.393-14.573,7.393-10,0-15.9-6.276-15.9-15.477,0-9.255,5.9-15.53,15.9-15.53C287.93,485.237,293.143,488.109,295.908,492.63Zm0,13.243V495.608c-2.978-5.318-7.924-7.925-14.041-7.925-8.616,0-13.668,4.947-13.668,13.084,0,8.084,5.053,13.03,13.668,13.03C287.984,513.8,292.93,511.192,295.908,505.873Z" transform="translate(-149.455 -475.823)"/>
      <path id="Path_236" data-name="Path 236" d="M347.5,499.065v16.116h-2.713V499.225c0-7.287-3.563-11.542-11.222-11.542-6.064,0-11.115,2.713-13.882,8.564v18.934h-2.712V475.823h2.712v17.126c2.66-4.787,7.818-7.712,14.307-7.712C343.242,485.237,347.5,491.034,347.5,499.065Z" transform="translate(-158.823 -475.823)"/>
      <path id="Path_237" data-name="Path 237" d="M394.879,501.316v10.265a10.52,10.52,0,0,0,1.383,5.691h-2.925a10.082,10.082,0,0,1-1.223-5.212v-.16c-2.127,3.777-7.393,6.436-13.776,6.436-6.435,0-15.051-2.606-15.051-10.212s8.616-10.211,15.051-10.211c6.383,0,11.648,2.606,13.776,6.435v-3.031c0-7.659-4.308-11.595-12.765-11.595a21.456,21.456,0,0,0-12.179,3.617l-1.276-2.021a25.168,25.168,0,0,1,13.829-3.989C389.082,487.329,394.879,492.062,394.879,501.316Zm-2.712,5.8c-2.287-4.84-8.031-6.914-13.615-6.914-4.947,0-12.552,1.649-12.552,7.924,0,6.223,7.605,7.871,12.552,7.871,5.584,0,11.328-2.127,13.615-6.914Z" transform="translate(-167.243 -477.915)"/>
      <path id="Path_238" data-name="Path 238" d="M466.761,501v16.275H464.1V501.157c0-6.754-3.085-11.382-10.424-11.382-5.9,0-10.424,3.192-12.925,8.829a18.092,18.092,0,0,1,.16,2.393v16.275H438.2V501.157c0-6.754-3.086-11.382-10.424-11.382-5.9,0-10.265,3.032-12.712,8.457v19.041h-2.712V488.392h2.712v6.6c2.287-4.627,7.287-7.659,13.3-7.659,6.915,0,10.638,3.669,11.967,8.829,2.234-5.585,7.766-8.829,13.881-8.829C463.251,487.329,466.761,493.445,466.761,501Z" transform="translate(-176.162 -477.915)"/>
    </g>
    <g id="Group_100" data-name="Group 100" transform="translate(394.762 74.02)">
      <path id="Path_239" data-name="Path 239" d="M400.81,397.18a15.358,15.358,0,1,1,25.3,17.418l-4.456-2.73a10.14,10.14,0,1,0-16.7-11.5Z" transform="translate(-400.066 -390.529)" fill="#105142" stroke="#105142" stroke-linecap="round" stroke-linejoin="round" stroke-width="2"/>
      <ellipse id="Ellipse_1" data-name="Ellipse 1" cx="1.131" cy="2.611" rx="1.131" ry="2.611" transform="translate(0 7.731) rotate(-55.454)" fill="#0c3f36" stroke="#0c3f36" stroke-linecap="round" stroke-linejoin="round" stroke-width="2"/>
      <ellipse id="Ellipse_2" data-name="Ellipse 2" cx="1.131" cy="2.611" rx="1.131" ry="2.611" transform="translate(21.001 22.189) rotate(-55.454)" fill="#0c3f36" stroke="#0c3f36" stroke-linecap="round" stroke-linejoin="round" stroke-width="2"/>
    </g>
    <g id="Group_101" data-name="Group 101" transform="translate(342.659 66.426)">
      <circle id="Ellipse_3" data-name="Ellipse 3" cx="10.991" cy="10.991" r="10.991" transform="translate(0 10.201)" fill="none" stroke="#105142" stroke-linejoin="round" stroke-width="2"/>
      <circle id="Ellipse_4" data-name="Ellipse 4" cx="10.991" cy="10.991" r="10.991" transform="translate(10.201)" fill="none" stroke="#105142" stroke-linejoin="round" stroke-width="2"/>
    </g>
    <path id="Path_240" data-name="Path 240" d="M403,366.943l-22.43-5.768,6.79,22.952,17.02-16.829-1.38-.355" transform="translate(-1.625 -311.174)" fill="#ff8887" stroke="#ff8887" stroke-linecap="round" stroke-linejoin="round" stroke-width="2"/>
    <g id="Group_103" data-name="Group 103" transform="translate(336.568 92.361)">
      <path id="Path_241" data-name="Path 241" d="M388.208,453.509s17.512-8.252,18.5-8.883,9.457-13.061,9.581-14.3-4.35-1.356-7.844,2.873c-3.029,3.666-3.828,4.753-4.616,5.258s-3.346,1.746-3.346,1.746" transform="translate(-339.582 -415.969)" fill="none" stroke="#ff8887" stroke-linecap="round" stroke-linejoin="round" stroke-width="2"/>
      <path id="Path_242" data-name="Path 242" d="M381.394,435.8s5.677-10.072,5.656-11.383-4.5-11.253-4.982-11.449-3.159,1.3-2.757,4.819c0,0,1.864,6.445,1.865,6.8s-3.594,5.131-7.717,9.318" transform="translate(-336.901 -412.947)" fill="none" stroke="#ff8887" stroke-linecap="round" stroke-linejoin="round" stroke-width="2"/>
      <path id="Path_243" data-name="Path 243" d="M395.689,434.808s3.494-4.712,4.03-5.791.565-13.312.42-14.1-4.023.332-4.68,4.088c-.919,5.255-.345,6.287-1.1,7.438s-7.462,7.23-9.558,9.334" transform="translate(-338.963 -413.261)" fill="none" stroke="#ff8887" stroke-linecap="round" stroke-linejoin="round" stroke-width="2"/>
      <g id="Group_102" data-name="Group 102" transform="translate(1.407 30.435)">
        <path id="Path_244" data-name="Path 244" d="M330.5,451.879c6.255.756,14.763,3.22,24.468,9.794,6.264,4.244,10.646,5.654,12.981,5.829,3.2.24,25.641-4.832,26.879-5.249s14.064-8.975,15.462-10.343c1.035-1.013-3.5-5.058-16.607,4.077,0,0-14.986,1.44-16.52,1.3-1.926-.17-1.33-3.167-3.754-7.083" transform="translate(-330.498 -450.143)" fill="none" stroke="#ff8887" stroke-linecap="round" stroke-linejoin="round" stroke-width="2"/>
      </g>
      <path id="Path_245" data-name="Path 245" d="M360.966,449.947s10.863-2.953,13.646-3.761c1.314-.381,12.474-3.148,14.747-4.854,1.654-1.241-3.885-4.942-9.581-3.738-4.346.918-8.482,2.152-9.564,2.064s-12.052-6.731-20.5-8.059c0,0-5.017-1.065-13.306.873-1.114.26-4.3-.041-7.631-.479" transform="translate(-328.779 -416.285)" fill="none" stroke="#ff8887" stroke-linecap="round" stroke-linejoin="round" stroke-width="2"/>
    </g>
  </g>
</svg>
